ffmpeg started on 2025-05-12 at 13:14:11
Report written to "D:\Convert\FFMetrics\reports\ssim_report-6.txt"
Log level: 32
Command line:
ffmpeg -hide_banner -nostdin -i "G:\\\xc0\xed\xe8\xec\xe5\\\xce\xed\xe3\xee\xe8\xed\xe3\xe8\\!_35_\xcb\xe5\xf2\xee_2024\\DreamCast\\\xc0\xeb\xff \xe8\xed\xee\xe3\xe4\xe0 \xea\xee\xea\xe5\xf2\xed\xe8\xf7\xe0\xe5\xf2 \xf1\xee \xec\xed\xee\xe9 \xef\xee-\xf0\xf3\xf1\xf1\xea\xe8\\[DC] Roshidere - 07_Telegram_HEVC.mkv" -i "G:\\\xc0\xed\xe8\xec\xe5\\\xce\xed\xe3\xee\xe8\xed\xe3\xe8\\!_35_\xcb\xe5\xf2\xee_2024\\DreamCast\\\xc0\xeb\xff \xe8\xed\xee\xe3\xe4\xe0 \xea\xee\xea\xe5\xf2\xed\xe8\xf7\xe0\xe5\xf2 \xf1\xee \xec\xed\xee\xe9 \xef\xee-\xf0\xf3\xf1\xf1\xea\xe8\\[DC] Roshidere - 07_Telegram.mp4" -lavfi "[0:v]settb=AVTB,setpts=PTS-STARTPTS,format=pix_fmts=yuv420p10,fps=24000/1001,scale=1920:1080:flags=bicubic[main];[1:v]settb=AVTB,setpts=PTS-STARTPTS,format=pix_fmts=yuv420p,fps=24000/1001,scale=1920:1080:flags=bicubic[ref];[main][ref]ssim=eof_action=endall:stats_file='D\\:/Convert/FFMetrics/logs/ssim_logfile-6.txt'" -f null -
Input #0, matroska,webm, from 'G:\Аниме\Онгоинги\!_35_Лето_2024\DreamCast\Аля иногда кокетничает со мной по-русски\[DC] Roshidere - 07_Telegram_HEVC.mkv':
  Metadata:
    COMPATIBLE_BRANDS: isomiso2avc1mp41
    MAJOR_BRAND     : isom
    MINOR_VERSION   : 512
    ENCODER         : Lavf61.7.100
  Duration: 00:24:46.68, start: -0.021000, bitrate: 842 kb/s
  Stream #0:0: Video: hevc (Main 10), yuv420p10le(tv, bt709, progressive), 1920x1080 [SAR 1:1 DAR 16:9], 23.98 fps, 23.98 tbr, 1k tbn (default)
      Metadata:
        HANDLER_NAME    : VideoHandler
        VENDOR_ID       : [0][0][0][0]
        ENCODER         : Lavc61.19.100 libx265
        BPS             : 645084
        DURATION        : 00:24:46.484708333
        NUMBER_OF_FRAMES: 35640
        NUMBER_OF_BYTES : 119863390
        _STATISTICS_WRITING_APP: mkvpropedit v66.0.0 ('Josie') 64-bit
        _STATISTICS_WRITING_DATE_UTC: 2025-05-06 12:27:05
        _STATISTICS_TAGS: BPS DURATION NUMBER_OF_FRAMES NUMBER_OF_BYTES
  Stream #0:1: Audio: aac (LC), 48000 Hz, stereo, fltp (default)
      Metadata:
        HANDLER_NAME    : SoundHandler
        VENDOR_ID       : [0][0][0][0]
        ENCODER         : Lavc61.19.100 aac
        BPS             : 193373
        DURATION        : 00:24:46.677000000
        NUMBER_OF_FRAMES: 69689
        NUMBER_OF_BYTES : 35935533
        _STATISTICS_WRITING_APP: mkvpropedit v66.0.0 ('Josie') 64-bit
        _STATISTICS_WRITING_DATE_UTC: 2025-05-06 12:27:05
        _STATISTICS_TAGS: BPS DURATION NUMBER_OF_FRAMES NUMBER_OF_BYTES
Input #1, mov,mp4,m4a,3gp,3g2,mj2, from 'G:\Аниме\Онгоинги\!_35_Лето_2024\DreamCast\Аля иногда кокетничает со мной по-русски\[DC] Roshidere - 07_Telegram.mp4':
  Metadata:
    major_brand     : isom
    minor_version   : 512
    compatible_brands: isomiso2avc1mp41
    encoder         : Lavf61.1.100
  Duration: 00:24:46.63, start: 0.000000, bitrate: 3654 kb/s
  Stream #1:0[0x1](und): Video: h264 (High) (avc1 / 0x31637661), yuv420p(tv, bt709, progressive), 1920x1080 [SAR 1:1 DAR 16:9], 3506 kb/s, 23.98 fps, 23.98 tbr, 24k tbn (default)
      Metadata:
        handler_name    : VideoHandler
        vendor_id       : [0][0][0][0]
        encoder         : Lavc61.3.100 h264_qsv
  Stream #1:1[0x2](und): Audio: aac (HE-AACv2) (mp4a / 0x6134706D), 48000 Hz, stereo, fltp, 144 kb/s (default)
      Metadata:
        handler_name    : SoundHandler
        vendor_id       : [0][0][0][0]
Stream mapping:
  Stream #0:0 (hevc) -> settb:default
  Stream #1:0 (h264) -> settb:default
  ssim:default -> Stream #0:0 (wrapped_avframe)
  Stream #0:1 -> #0:1 (aac (native) -> pcm_s16le (native))
Output #0, null, to 'pipe:':
  Metadata:
    COMPATIBLE_BRANDS: isomiso2avc1mp41
    MAJOR_BRAND     : isom
    MINOR_VERSION   : 512
    encoder         : Lavf61.7.100
  Stream #0:0: Video: wrapped_avframe, yuv420p10le(tv, bt709, progressive), 1920x1080 [SAR 1:1 DAR 16:9], q=2-31, 200 kb/s, 23.98 fps, 23.98 tbn
      Metadata:
        encoder         : Lavc61.19.100 wrapped_avframe
  Stream #0:1: Audio: pcm_s16le, 48000 Hz, stereo, s16, 1536 kb/s (default)
      Metadata:
        HANDLER_NAME    : SoundHandler
        VENDOR_ID       : [0][0][0][0]
        _STATISTICS_TAGS: BPS DURATION NUMBER_OF_FRAMES NUMBER_OF_BYTES
        BPS             : 193373
        DURATION        : 00:24:46.677000000
        NUMBER_OF_FRAMES: 69689
        NUMBER_OF_BYTES : 35935533
        _STATISTICS_WRITING_APP: mkvpropedit v66.0.0 ('Josie') 64-bit
        _STATISTICS_WRITING_DATE_UTC: 2025-05-06 12:27:05
        encoder         : Lavc61.19.100 pcm_s16le
frame=  163 fps=0.0 q=-0.0 size=N/A time=00:00:06.79 bitrate=N/A speed=13.2x    frame=  415 fps=405 q=-0.0 size=N/A time=00:00:17.30 bitrate=N/A speed=16.9x    frame=  675 fps=440 q=-0.0 size=N/A time=00:00:28.15 bitrate=N/A speed=18.3x    frame=  923 fps=448 q=-0.0 size=N/A time=00:00:38.49 bitrate=N/A speed=18.7x    frame= 1110 fps=432 q=-0.0 size=N/A time=00:00:46.29 bitrate=N/A speed=  18x    frame= 1304 fps=422 q=-0.0 size=N/A time=00:00:54.38 bitrate=N/A speed=17.6x    frame= 1524 fps=424 q=-0.0 size=N/A time=00:01:03.56 bitrate=N/A speed=17.7x    frame= 1731 fps=420 q=-0.0 size=N/A time=00:01:12.19 bitrate=N/A speed=17.5x    frame= 1941 fps=418 q=-0.0 size=N/A time=00:01:20.95 bitrate=N/A speed=17.4x    frame= 2160 fps=418 q=-0.0 size=N/A time=00:01:30.09 bitrate=N/A speed=17.4x    frame= 2330 fps=410 q=-0.0 size=N/A time=00:01:37.18 bitrate=N/A speed=17.1x    frame= 2493 fps=402 q=-0.0 size=N/A time=00:01:43.97 bitrate=N/A speed=16.8x    frame= 2680 fps=400 q=-0.0 size=N/A time=00:01:51.77 bitrate=N/A speed=16.7x    frame= 2885 fps=399 q=-0.0 size=N/A time=00:02:00.32 bitrate=N/A speed=16.6x    frame= 3134 fps=404 q=-0.0 size=N/A time=00:02:10.71 bitrate=N/A speed=16.9x    frame= 3417 fps=414 q=-0.0 size=N/A time=00:02:22.51 bitrate=N/A speed=17.3x    frame= 3693 fps=421 q=-0.0 size=N/A time=00:02:34.02 bitrate=N/A speed=17.6x    frame= 3988 fps=429 q=-0.0 size=N/A time=00:02:46.33 bitrate=N/A speed=17.9x    frame= 4239 fps=432 q=-0.0 size=N/A time=00:02:56.80 bitrate=N/A speed=  18x    frame= 4520 fps=438 q=-0.0 size=N/A time=00:03:08.52 bitrate=N/A speed=18.3x    frame= 4783 fps=441 q=-0.0 size=N/A time=00:03:19.49 bitrate=N/A speed=18.4x    frame= 5062 fps=446 q=-0.0 size=N/A time=00:03:31.12 bitrate=N/A speed=18.6x    frame= 5342 fps=450 q=-0.0 size=N/A time=00:03:42.84 bitrate=N/A speed=18.8x    frame= 5620 fps=454 q=-0.0 size=N/A time=00:03:54.40 bitrate=N/A speed=18.9x    frame= 5879 fps=456 q=-0.0 size=N/A time=00:04:05.20 bitrate=N/A speed=  19x    frame= 6161 fps=459 q=-0.0 size=N/A time=00:04:16.96 bitrate=N/A speed=19.1x    frame= 6430 fps=462 q=-0.0 size=N/A time=00:04:28.18 bitrate=N/A speed=19.3x    frame= 6717 fps=465 q=-0.0 size=N/A time=00:04:40.15 bitrate=N/A speed=19.4x    frame= 6993 fps=467 q=-0.0 size=N/A time=00:04:51.66 bitrate=N/A speed=19.5x    frame= 7271 fps=469 q=-0.0 size=N/A time=00:05:03.26 bitrate=N/A speed=19.6x    frame= 7507 fps=469 q=-0.0 size=N/A time=00:05:13.10 bitrate=N/A speed=19.6x    frame= 7777 fps=471 q=-0.0 size=N/A time=00:05:24.36 bitrate=N/A speed=19.6x    frame= 8054 fps=473 q=-0.0 size=N/A time=00:05:35.91 bitrate=N/A speed=19.7x    frame= 8310 fps=474 q=-0.0 size=N/A time=00:05:46.59 bitrate=N/A speed=19.8x    frame= 8583 fps=475 q=-0.0 size=N/A time=00:05:57.98 bitrate=N/A speed=19.8x    frame= 8830 fps=475 q=-0.0 size=N/A time=00:06:08.28 bitrate=N/A speed=19.8x    frame= 9108 fps=477 q=-0.0 size=N/A time=00:06:19.87 bitrate=N/A speed=19.9x    frame= 9354 fps=476 q=-0.0 size=N/A time=00:06:30.13 bitrate=N/A speed=19.9x    frame= 9617 fps=477 q=-0.0 size=N/A time=00:06:41.10 bitrate=N/A speed=19.9x    frame= 9882 fps=478 q=-0.0 size=N/A time=00:06:52.20 bitrate=N/A speed=19.9x    frame=10158 fps=479 q=-0.0 size=N/A time=00:07:03.67 bitrate=N/A speed=  20x    frame=10425 fps=480 q=-0.0 size=N/A time=00:07:14.80 bitrate=N/A speed=  20x    frame=10694 fps=481 q=-0.0 size=N/A time=00:07:26.02 bitrate=N/A speed=20.1x    frame=10958 fps=482 q=-0.0 size=N/A time=00:07:37.03 bitrate=N/A speed=20.1x    frame=11204 fps=482 q=-0.0 size=N/A time=00:07:47.30 bitrate=N/A speed=20.1x    frame=11466 fps=482 q=-0.0 size=N/A time=00:07:58.22 bitrate=N/A speed=20.1x    frame=11754 fps=484 q=-0.0 size=N/A time=00:08:10.23 bitrate=N/A speed=20.2x    frame=12038 fps=485 q=-0.0 size=N/A time=00:08:22.08 bitrate=N/A speed=20.2x    frame=12321 fps=486 q=-0.0 size=N/A time=00:08:33.88 bitrate=N/A speed=20.3x    frame=12595 fps=487 q=-0.0 size=N/A time=00:08:45.31 bitrate=N/A speed=20.3x    frame=12884 fps=489 q=-0.0 size=N/A time=00:08:57.37 bitrate=N/A speed=20.4x    frame=13164 fps=490 q=-0.0 size=N/A time=00:09:09.04 bitrate=N/A speed=20.4x    frame=13446 fps=491 q=-0.0 size=N/A time=00:09:20.81 bitrate=N/A speed=20.5x    frame=13705 fps=491 q=-0.0 size=N/A time=00:09:31.61 bitrate=N/A speed=20.5x    frame=13987 fps=492 q=-0.0 size=N/A time=00:09:43.37 bitrate=N/A speed=20.5x    frame=14231 fps=492 q=-0.0 size=N/A time=00:09:53.55 bitrate=N/A speed=20.5x    frame=14493 fps=492 q=-0.0 size=N/A time=00:10:04.47 bitrate=N/A speed=20.5x    frame=14767 fps=493 q=-0.0 size=N/A time=00:10:15.90 bitrate=N/A speed=20.6x    frame=15059 fps=494 q=-0.0 size=N/A time=00:10:28.08 bitrate=N/A speed=20.6x    frame=15341 fps=495 q=-0.0 size=N/A time=00:10:39.84 bitrate=N/A speed=20.6x    frame=15629 fps=496 q=-0.0 size=N/A time=00:10:51.85 bitrate=N/A speed=20.7x    frame=15877 fps=496 q=-0.0 size=N/A time=00:11:02.20 bitrate=N/A speed=20.7x    frame=16147 fps=496 q=-0.0 size=N/A time=00:11:13.46 bitrate=N/A speed=20.7x    frame=16412 fps=496 q=-0.0 size=N/A time=00:11:24.51 bitrate=N/A speed=20.7x    frame=16690 fps=497 q=-0.0 size=N/A time=00:11:36.11 bitrate=N/A speed=20.7x    frame=16952 fps=497 q=-0.0 size=N/A time=00:11:47.03 bitrate=N/A speed=20.7x    frame=17197 fps=497 q=-0.0 size=N/A time=00:11:57.25 bitrate=N/A speed=20.7x    frame=17444 fps=497 q=-0.0 size=N/A time=00:12:07.56 bitrate=N/A speed=20.7x    frame=17714 fps=497 q=-0.0 size=N/A time=00:12:18.82 bitrate=N/A speed=20.7x    frame=17985 fps=497 q=-0.0 size=N/A time=00:12:30.12 bitrate=N/A speed=20.7x    frame=18235 fps=497 q=-0.0 size=N/A time=00:12:40.55 bitrate=N/A speed=20.7x    frame=18474 fps=497 q=-0.0 size=N/A time=00:12:50.51 bitrate=N/A speed=20.7x    frame=18731 fps=497 q=-0.0 size=N/A time=00:13:01.23 bitrate=N/A speed=20.7x    frame=19002 fps=497 q=-0.0 size=N/A time=00:13:12.54 bitrate=N/A speed=20.7x    frame=19293 fps=498 q=-0.0 size=N/A time=00:13:24.67 bitrate=N/A speed=20.8x    frame=19552 fps=498 q=-0.0 size=N/A time=00:13:35.52 bitrate=N/A speed=20.8x    frame=19829 fps=499 q=-0.0 size=N/A time=00:13:47.03 bitrate=N/A speed=20.8x    frame=20102 fps=499 q=-0.0 size=N/A time=00:13:58.42 bitrate=N/A speed=20.8x    frame=20356 fps=499 q=-0.0 size=N/A time=00:14:09.01 bitrate=N/A speed=20.8x    frame=20622 fps=499 q=-0.0 size=N/A time=00:14:20.10 bitrate=N/A speed=20.8x    frame=20901 fps=500 q=-0.0 size=N/A time=00:14:31.74 bitrate=N/A speed=20.8x    frame=21131 fps=499 q=-0.0 size=N/A time=00:14:41.33 bitrate=N/A speed=20.8x    frame=21396 fps=499 q=-0.0 size=N/A time=00:14:52.39 bitrate=N/A speed=20.8x    frame=21635 fps=499 q=-0.0 size=N/A time=00:15:02.35 bitrate=N/A speed=20.8x    frame=21913 fps=499 q=-0.0 size=N/A time=00:15:13.95 bitrate=N/A speed=20.8x    frame=22182 fps=499 q=-0.0 size=N/A time=00:15:25.17 bitrate=N/A speed=20.8x    frame=22446 fps=500 q=-0.0 size=N/A time=00:15:36.18 bitrate=N/A speed=20.8x    frame=22711 fps=500 q=-0.0 size=N/A time=00:15:47.23 bitrate=N/A speed=20.8x    frame=22969 fps=500 q=-0.0 size=N/A time=00:15:57.99 bitrate=N/A speed=20.8x    frame=23251 fps=500 q=-0.0 size=N/A time=00:16:09.76 bitrate=N/A speed=20.9x    frame=23512 fps=500 q=-0.0 size=N/A time=00:16:20.64 bitrate=N/A speed=20.9x    frame=23731 fps=499 q=-0.0 size=N/A time=00:16:29.78 bitrate=N/A speed=20.8x    frame=23949 fps=499 q=-0.0 size=N/A time=00:16:38.87 bitrate=N/A speed=20.8x    frame=24190 fps=498 q=-0.0 size=N/A time=00:16:48.92 bitrate=N/A speed=20.8x    frame=24423 fps=498 q=-0.0 size=N/A time=00:16:58.64 bitrate=N/A speed=20.8x    frame=24670 fps=498 q=-0.0 size=N/A time=00:17:08.94 bitrate=N/A speed=20.8x    frame=24933 fps=498 q=-0.0 size=N/A time=00:17:19.91 bitrate=N/A speed=20.8x    frame=25193 fps=498 q=-0.0 size=N/A time=00:17:30.75 bitrate=N/A speed=20.8x    frame=25447 fps=498 q=-0.0 size=N/A time=00:17:41.35 bitrate=N/A speed=20.8x    frame=25712 fps=498 q=-0.0 size=N/A time=00:17:52.40 bitrate=N/A speed=20.8x    frame=25987 fps=498 q=-0.0 size=N/A time=00:18:03.87 bitrate=N/A speed=20.8x    frame=26255 fps=498 q=-0.0 size=N/A time=00:18:15.05 bitrate=N/A speed=20.8x    frame=26507 fps=498 q=-0.0 size=N/A time=00:18:25.56 bitrate=N/A speed=20.8x    frame=26789 fps=499 q=-0.0 size=N/A time=00:18:37.32 bitrate=N/A speed=20.8x    frame=27061 fps=499 q=-0.0 size=N/A time=00:18:48.66 bitrate=N/A speed=20.8x    frame=27348 fps=500 q=-0.0 size=N/A time=00:19:00.63 bitrate=N/A speed=20.8x    frame=27601 fps=500 q=-0.0 size=N/A time=00:19:11.19 bitrate=N/A speed=20.8x    frame=27891 fps=500 q=-0.0 size=N/A time=00:19:23.28 bitrate=N/A speed=20.9x    frame=28168 fps=500 q=-0.0 size=N/A time=00:19:34.84 bitrate=N/A speed=20.9x    frame=28422 fps=500 q=-0.0 size=N/A time=00:19:45.43 bitrate=N/A speed=20.9x    frame=28698 fps=501 q=-0.0 size=N/A time=00:19:56.94 bitrate=N/A speed=20.9x    frame=28950 fps=501 q=-0.0 size=N/A time=00:20:07.45 bitrate=N/A speed=20.9x    frame=29185 fps=500 q=-0.0 size=N/A time=00:20:17.25 bitrate=N/A speed=20.9x    frame=29435 fps=500 q=-0.0 size=N/A time=00:20:27.68 bitrate=N/A speed=20.9x    frame=29721 fps=501 q=-0.0 size=N/A time=00:20:39.61 bitrate=N/A speed=20.9x    frame=29988 fps=501 q=-0.0 size=N/A time=00:20:50.74 bitrate=N/A speed=20.9x    frame=30250 fps=501 q=-0.0 size=N/A time=00:21:01.67 bitrate=N/A speed=20.9x    frame=30523 fps=501 q=-0.0 size=N/A time=00:21:13.06 bitrate=N/A speed=20.9x    frame=30784 fps=501 q=-0.0 size=N/A time=00:21:23.94 bitrate=N/A speed=20.9x    frame=31059 fps=501 q=-0.0 size=N/A time=00:21:35.41 bitrate=N/A speed=20.9x    frame=31353 fps=502 q=-0.0 size=N/A time=00:21:47.68 bitrate=N/A speed=20.9x    frame=31623 fps=502 q=-0.0 size=N/A time=00:21:58.94 bitrate=N/A speed=20.9x    frame=31879 fps=502 q=-0.0 size=N/A time=00:22:09.61 bitrate=N/A speed=20.9x    frame=32117 fps=502 q=-0.0 size=N/A time=00:22:19.54 bitrate=N/A speed=20.9x    frame=32383 fps=502 q=-0.0 size=N/A time=00:22:30.64 bitrate=N/A speed=20.9x    frame=32661 fps=502 q=-0.0 size=N/A time=00:22:42.23 bitrate=N/A speed=20.9x    frame=32930 fps=502 q=-0.0 size=N/A time=00:22:53.45 bitrate=N/A speed=  21x    frame=33203 fps=502 q=-0.0 size=N/A time=00:23:04.84 bitrate=N/A speed=  21x    frame=33425 fps=502 q=-0.0 size=N/A time=00:23:14.10 bitrate=N/A speed=20.9x    frame=33645 fps=501 q=-0.0 size=N/A time=00:23:23.27 bitrate=N/A speed=20.9x    frame=33850 fps=501 q=-0.0 size=N/A time=00:23:31.82 bitrate=N/A speed=20.9x    frame=34078 fps=500 q=-0.0 size=N/A time=00:23:41.33 bitrate=N/A speed=20.9x    frame=34282 fps=499 q=-0.0 size=N/A time=00:23:49.84 bitrate=N/A speed=20.8x    frame=34495 fps=499 q=-0.0 size=N/A time=00:23:58.72 bitrate=N/A speed=20.8x    frame=34693 fps=498 q=-0.0 size=N/A time=00:24:06.98 bitrate=N/A speed=20.8x    frame=34877 fps=497 q=-0.0 size=N/A time=00:24:14.66 bitrate=N/A speed=20.7x    frame=35076 fps=496 q=-0.0 size=N/A time=00:24:22.96 bitrate=N/A speed=20.7x    frame=35303 fps=496 q=-0.0 size=N/A time=00:24:32.42 bitrate=N/A speed=20.7x    frame=35527 fps=495 q=-0.0 size=N/A time=00:24:41.77 bitrate=N/A speed=20.7x    [Parsed_ssim_10 @ 00000185ca9b9680] SSIM Y:0.995813 (23.780584) U:0.993645 (21.968681) V:0.993263 (21.715226) All:0.995026 (23.033249)
[out#0/null @ 00000185cb09e580] video:15314KiB audio:278756KiB subtitle:0KiB other streams:0KiB global headers:0KiB muxing overhead: unknown
frame=35640 fps=495 q=-0.0 Lsize=N/A time=00:24:46.48 bitrate=N/A speed=20.6x    
